#!OML:ASF F:\VICON\USERDATA\INSTALL\rory3\rory3.ASF
:FULLY-SPECIFIED
:DEGREES
65
root 1.302241998560673 17.88076889690507 50.91440045299151 -3.6977608988657438 -2.054067439364259 -4.608173103133285
lfemur -7.49129367991898 0.2345986208583517 -12.885312625544394
ltibia 60.65584127730081
lfoot -6.999865188581588 -0.025412070478192383
ltoes -6.4477383979218645
rfemur -6.202271818575233 4.541126265575554 30.714536478255823
rtibia 27.14976893246277
rfoot -20.64115137605574 -12.318538002477274
rtoes 0.9816302429106369
lowerback 9.563270596186172 -0.5414153939752155 3.688839000527937
upperback 0.23781619540564086 0.31438169850810715 2.437367550903293
thorax -5.437004219526319 0.092330940968298 1.2037973658495598
lowerneck -16.60905758699823 -2.804898953359904 -1.4579278251340424
upperneck 21.611351861765602 -3.451554854781036 -0.0835534420532763
head 9.609010197373937 -1.7483883482050717 -0.2166970077585912
lclavicle 4.991259272113986e-16 -7.33214884697602e-16
lhumerus -28.56555569371968 1.0964154590853665 81.24410116677568
lradius 20.615944977939815
lwrist 8.325040578923128
lhand -28.60877769507475 19.493398628038776
lfingers nan
lthumb -1.7788248664603208 49.700597710380386
rclavicle 3.868488141220965e-16 -8.080499975956479e-16
rhumerus -29.464314360650643 -23.47139983015913 -75.38701854258824
rradius 30.254875688521906
rwrist 0.7946730370057948
rhand -17.746221978942728 21.73266620841939
rfingers nan
rthumb 8.63240512650238 -7.819139300597829
66
root 1.2554689394940284 17.863404158870612 50.62942396113845 -3.828669808160707 -1.9653252353815398 -5.5867215562322246
lfemur -11.89988984561439 0.9791310197758138 -11.383520185481316
ltibia 61.61519604417022
lfoot -6.715521170326692 0.6033363610896112
ltoes -7.3714667268974985
rfemur -2.5277974769021316 5.156743990052833 31.853310556462535
rtibia 26.60667929203968
rfoot -21.710094079815615 -12.78902220432959
rtoes -0.7282276313153182
lowerback 9.76600283310223 -0.0982645418530419 4.547398377404057
upperback 0.272326157578821 1.033485711178422 2.431142603486805
thorax -5.523729212737463 0.45568858463211115 0.5800570725902348
lowerneck -16.661796835177135 -2.9044835909125344 -1.2897259772590588
upperneck 21.42306871231254 -3.632245266319065 -0.08069906918114134
head 9.567154122993392 -1.8201648253275176 -0.294259567692749
lclavicle 5.1113507501520545e-16 -7.271756462382579e-16
lhumerus -29.703937673736867 2.1410640112627015 81.44340907204473
lradius 20.36166383297712
lwrist 8.52954396810239
lhand -28.82343879838457 19.2326361822805
lfingers nan
lthumb -2.016607538859496 49.4713159133543
rclavicle 3.9736814219823164e-16 -8.064857565854223e-16
rhumerus -28.143888873878794 -22.190675030975083 -75.54303151253421
rradius 30.36227827408544
rwrist 0.8447777115581441
rhand -17.732255466648592 21.877897555037535
rfingers nan
rthumb 8.645411411313763 -7.626218149843705
67
root 1.2129453521874636 17.857631192912457 50.64439697390722 -3.7819234607629735 -1.5684434415459507 -6.850948650113183
lfemur -16.198143643828846 1.3209785811224115 -10.266722417848412
ltibia 60.9013651224797
lfoot -7.165817748435123 0.3087695918420357
ltoes -7.5680448027847085
rfemur -0.11378809531166745 5.593939649140598 32.9381405765891
rtibia 26.946285508213176
rfoot -21.565199864886466 -12.410257692053989
rtoes -2.3366518788921202
lowerback 9.89139050002884 0.26203966715370924 5.60048290565415
upperback 0.2604562968253002 1.7029606377170707 2.438970267420804
thorax -5.550144001587459 0.782462436899631 -0.11688602556213756
lowerneck -16.665977383600282 -3.027231004495236 -1.2233025003140212
upperneck 21.284024293494088 -3.8427972340194225 -0.011313243834171649
head 9.530677567133758 -1.903842570733489 -0.3398730225970024
lclavicle 5.251133778525957e-16 -7.200178683187398e-16
lhumerus -30.99645022266072 3.1998935389597007 81.59404998686223
lradius 20.439949276551022
lwrist 8.702547238510094
lhand -28.996838240343383 19.125509922551473
lfingers nan
lthumb -2.258788389529589 49.31063881826919
rclavicle 4.0930865875517087e-16 -8.048785946813497e-16
rhumerus -26.96693071820129 -20.865473199917965 -75.63972719699764
rradius 30.649274056045883
rwrist 1.1022753949533706
rhand -17.710284631554583 22.062584214040623
rfingers nan
rthumb 8.665885493608984 -7.409701881461895
68
root 1.173316046438746 17.861577711489634 50.2919756893081 -3.6885010562785068 -1.047620395669556 -7.847508755265316
lfemur -19.810856693033465 1.1965891242962934 -10.08026991720435
ltibia 58.606773120920636
lfoot -7.561577649403984 1.0600683892713074
ltoes -8.270601378563871
rfemur 1.124035703911911 5.691929299297311 33.490984616130966
rtibia 28.269719660009336
rfoot -20.350985946307944 -11.453210728464953
rtoes -3.456027647640281
lowerback 9.941677706208193 0.5639297934813788 6.46620019085068
upperback 0.20664196752009173 2.257967967690627 2.368908754923893
thorax -5.525097037009369 1.034097064736499 -0.8210402732347347
lowerneck -16.574592815600596 -3.14349107352902 -1.2372385229346996
upperneck 21.247211826689874 -4.033433862109865 0.1071709795085084
head 9.514881283661436 -1.9788260307510022 -0.344127245622294
lclavicle 5.420377881045466e-16 -7.108949120932169e-16
lhumerus -32.357134109424806 4.151522189929999 81.6648412379725
lradius 20.7835368725683
lwrist 8.89571590823527
lhand -29.078672583307835 19.109815443720475
lfingers nan
lthumb -2.348389569399438 49.31108259242209
rclavicle 4.221400768948083e-16 -8.033034814850212e-16
rhumerus -26.01952714043371 -19.613797135683143 -75.67422350744076
rradius 31.075417684360573
rwrist 1.3552515675266514
rhand -17.695814581962722 22.20577006363116
rfingers nan
rthumb 8.677678145815811 -7.256415254325065
